<svg width="24.000000" height="24.000000" viewBox="0 0 24 24" fill="none" xmlns="http://www.w3.org/2000/svg" xmlns:xlink="http://www.w3.org/1999/xlink">
	<desc>
			Created with Pixso.
	</desc>
	<defs>
		<clipPath id="clip4_35412">
			<rect id="arrowshape_turn_up_right" width="24.000000" height="24.000000" fill="white" fill-opacity="0"/>
		</clipPath>
	</defs>
	<g clip-path="url(#clip4_35412)">
		<g opacity="0.000000">
			<rect id="rect" width="24.000000" height="24.000000" fill="#000000" fill-opacity="1.000000"/>
		</g>
		<path id="path" d="M0.97 20.28C0.97 20.45 1.03 20.61 1.13 20.75C1.24 20.88 1.38 20.97 1.55 21.02C1.73 21.07 1.9 21.06 2.07 20.99C2.24 20.91 2.37 20.8 2.46 20.64C3.04 19.45 3.81 18.43 4.75 17.57C5.71 16.7 6.79 16.04 7.99 15.58C9.21 15.11 10.47 14.88 11.78 14.88L11.95 14.88L11.95 18.43C11.95 18.78 12.04 19.1 12.23 19.37C12.41 19.66 12.66 19.87 12.98 20.04C13.3 20.16 13.62 20.2 13.96 20.15C14.28 20.09 14.58 19.95 14.86 19.73L22.32 13.03C22.52 12.82 22.69 12.58 22.81 12.32C22.93 12.06 22.99 11.78 22.99 11.5C22.99 11.2 22.93 10.93 22.81 10.67C22.69 10.4 22.52 10.17 22.32 9.98L14.88 3.24C14.62 3 14.33 2.85 13.99 2.81C13.65 2.76 13.33 2.81 13.01 2.95C12.69 3.09 12.43 3.31 12.24 3.6C12.04 3.88 11.95 4.2 11.95 4.56L11.95 8.42C9.88 8.74 8.03 9.45 6.37 10.57C4.73 11.68 3.43 13.08 2.47 14.78C1.53 16.48 1.03 18.31 0.97 20.28ZM13.44 4.56C13.46 4.48 13.53 4.33 13.63 4.31C13.73 4.28 13.81 4.3 13.87 4.37L21.31 11.09C21.43 11.2 21.5 11.34 21.5 11.5C21.5 11.66 21.43 11.79 21.31 11.9L13.87 18.62C13.82 18.67 13.76 18.7 13.69 18.7C13.61 18.7 13.55 18.67 13.51 18.62C13.46 18.57 13.44 18.51 13.44 18.43L13.44 13.46L12.74 13.42C10.87 13.28 9.08 13.55 7.37 14.22C5.67 14.88 4.21 15.88 3.01 17.2C3.48 15.81 4.22 14.58 5.22 13.52C6.23 12.46 7.39 11.61 8.7 10.98C10.02 10.34 11.37 9.96 12.77 9.82L13.44 9.74L13.44 4.56Z" fill="#000000" fill-opacity="0.901961" fill-rule="nonzero"/>
	</g>
</svg>
