<svg width="40.000000" height="40.000000" viewBox="0 0 40 40" fill="none" xmlns="http://www.w3.org/2000/svg" xmlns:xlink="http://www.w3.org/1999/xlink">
	<desc>
			Created with Pixso.
	</desc>
	<defs>
		<clipPath id="clip4_33784">
			<rect id="cart_fill" width="22.500000" height="22.500000" transform="translate(8.750000 8.750000)" fill="white" fill-opacity="0"/>
		</clipPath>
	</defs>
	<circle id="椭圆 56" cx="20.000000" cy="20.000000" r="20.000000" fill="#0A59F7" fill-opacity="0.100275"/>
	<g clip-path="url(#clip4_33784)">
		<path id="减去顶层" d="M26.6351 22.8592C27.0226 22.8592 27.3789 22.6998 27.7039 22.3811C28.0289 22.0686 28.2195 21.6811 28.2758 21.2186L29.2883 14.0842C29.307 13.9905 29.3008 13.8967 29.2695 13.803C29.2383 13.703 29.1852 13.6092 29.1102 13.5217C28.9727 13.3717 28.8008 13.2967 28.5945 13.2967L14.307 13.2967L13.9695 11.2717C13.9383 11.103 13.8539 10.9623 13.7164 10.8498C13.6442 10.788 13.5663 10.7431 13.4828 10.7153C13.4145 10.6925 13.3423 10.6811 13.2664 10.6811L11.4008 10.6811C11.3051 10.6811 11.2163 10.6979 11.1343 10.7314C11.0503 10.7658 10.9735 10.8177 10.9039 10.8873C10.8428 10.9513 10.796 11.0215 10.7632 11.0976C10.7258 11.1851 10.707 11.2807 10.707 11.3842C10.707 11.4878 10.7258 11.5833 10.7632 11.6708C10.796 11.747 10.8428 11.8171 10.9039 11.8811C10.9679 11.9422 11.038 11.9891 11.1142 12.0217C11.2017 12.0592 11.2972 12.078 11.4008 12.078L12.6852 12.078L14.3258 21.5936C13.9383 21.7311 13.6227 21.9686 13.3789 22.3061C13.1414 22.6436 13.0226 23.0217 13.0226 23.4405C13.0226 23.6457 13.0517 23.8419 13.1098 24.0291C13.1543 24.1726 13.2159 24.3107 13.2946 24.4436C13.4758 24.7498 13.7195 24.9936 14.0258 25.1748C14.1586 25.2535 14.2968 25.315 14.4402 25.3596C14.6274 25.4177 14.8237 25.4467 15.0289 25.4467L27.582 25.4467C27.7758 25.4467 27.9414 25.3748 28.0789 25.2311C28.1457 25.1579 28.1955 25.0783 28.2283 24.9922C28.2599 24.9091 28.2758 24.82 28.2758 24.7248C28.2758 24.5311 28.2101 24.3655 28.0789 24.228C27.9414 24.0967 27.7758 24.0311 27.582 24.0311L15.0008 24.0311C14.8383 24.0311 14.7008 23.9748 14.5883 23.8623C14.4758 23.7498 14.4196 23.6092 14.4196 23.4405C14.4196 23.278 14.4789 23.1405 14.5977 23.028C14.6756 22.9541 14.7602 22.9045 14.8516 22.8792C14.8995 22.8659 14.9492 22.8592 15.0008 22.8592L26.6351 22.8592ZM26.6557 16.3529C26.5245 16.4904 26.362 16.5591 26.1682 16.5591L23.5057 16.5591C23.312 16.5591 23.1495 16.4904 23.0182 16.3529C22.8807 16.2216 22.812 16.056 22.812 15.856C22.812 15.6622 22.8807 15.4997 23.0182 15.3685C23.1495 15.231 23.312 15.1622 23.5057 15.1622L26.1682 15.1622C26.362 15.1622 26.5245 15.231 26.6557 15.3685C26.7932 15.4997 26.862 15.6622 26.862 15.856C26.862 15.9724 26.8387 16.0771 26.7922 16.1702C26.7587 16.2371 26.7132 16.298 26.6557 16.3529ZM16.332 27.6686C16.332 28.1186 16.4914 28.5061 16.8102 28.8311C17.1351 29.1561 17.5226 29.3186 17.9727 29.3186C18.4227 29.3186 18.8102 29.1561 19.1351 28.8311C19.4539 28.5061 19.6133 28.1186 19.6133 27.6686C19.6133 27.2186 19.4539 26.8342 19.1351 26.5155C18.8102 26.1905 18.4227 26.028 17.9727 26.028C17.7639 26.028 17.5686 26.0629 17.3867 26.1329C17.1766 26.2137 16.9844 26.3412 16.8102 26.5155C16.4914 26.8342 16.332 27.2186 16.332 27.6686ZM22.9039 27.6686C22.9039 28.1186 23.0602 28.5061 23.3727 28.8311C23.6852 29.1561 24.0664 29.3186 24.5164 29.3186C24.9852 29.3186 25.3758 29.1561 25.6883 28.8311C26.007 28.5061 26.1664 28.1186 26.1664 27.6686C26.1664 27.2186 26.007 26.8342 25.6883 26.5155C25.3758 26.1905 24.9852 26.028 24.5164 26.028C24.0664 26.028 23.6852 26.1905 23.3727 26.5155C23.0602 26.8342 22.9039 27.2186 22.9039 27.6686Z" clip-rule="evenodd" fill="#0A59F7" fill-opacity="1.000000" fill-rule="evenodd"/>
		<path id="path" d="M26.16 16.55C26.36 16.55 26.52 16.49 26.65 16.35C26.79 16.22 26.86 16.05 26.86 15.85C26.86 15.66 26.79 15.5 26.65 15.36C26.52 15.23 26.36 15.16 26.16 15.16L23.5 15.16C23.31 15.16 23.15 15.23 23.01 15.36C22.88 15.5 22.81 15.66 22.81 15.85C22.81 16.05 22.88 16.22 23.01 16.35C23.15 16.49 23.31 16.55 23.5 16.55L26.16 16.55Z" fill="#0A59F7" fill-opacity="0.501961" fill-rule="nonzero"/>
	</g>
</svg>
