<svg width="32.000000" height="32.000000" viewBox="0 0 32 32" fill="none" xmlns="http://www.w3.org/2000/svg" xmlns:xlink="http://www.w3.org/1999/xlink">
	<desc>
			Created with Pixso.
	</desc>
	<defs>
		<clipPath id="clip4_37183">
			<rect id="multiply" width="18.000000" height="18.000000" transform="translate(7.000000 7.000000)" fill="white" fill-opacity="0"/>
		</clipPath>
		<clipPath id="clip4_37181">
			<rect id="画板 1428" width="32.000000" height="32.000000" fill="white" fill-opacity="0"/>
		</clipPath>
	</defs>
	<rect id="画板 1428" width="32.000000" height="32.000000" fill="#FFFFFF" fill-opacity="0"/>
	<g clip-path="url(#clip4_37181)">
		<circle id="椭圆 61" cx="16.000000" cy="16.000000" r="16.000000" fill="#000000" fill-opacity="0.047059"/>
		<g clip-path="url(#clip4_37183)">
			<g opacity="0.000000">
				<rect id="rect" x="7.000000" y="7.000000" width="18.000000" height="18.000000" fill="#000000" fill-opacity="1.000000"/>
			</g>
			<path id="path" d="M21.83 10.96C21.94 10.84 21.99 10.7 21.99 10.54C21.99 10.39 21.94 10.26 21.83 10.14C21.72 10.04 21.59 9.98 21.43 9.98C21.28 9.98 21.15 10.04 21.04 10.14L16 15.19L10.97 10.16C10.85 10.06 10.71 10 10.56 10C10.4 10 10.27 10.06 10.16 10.16C10.06 10.27 10 10.4 10 10.56C10 10.71 10.06 10.85 10.16 10.97L15.19 16L10.16 21.02C10.06 21.13 10 21.26 10 21.41C10 21.57 10.06 21.7 10.16 21.81C10.27 21.92 10.41 21.97 10.57 21.97C10.73 21.97 10.87 21.92 10.97 21.81L16 16.79L21.02 21.83C21.14 21.94 21.28 21.99 21.43 21.99C21.58 21.99 21.71 21.94 21.83 21.83C21.94 21.72 21.99 21.59 21.99 21.43C21.99 21.28 21.94 21.14 21.83 21.02L16.79 16L21.83 10.96Z" fill="#000000" fill-opacity="0.901961" fill-rule="nonzero"/>
		</g>
	</g>
</svg>
