<svg width="40.000000" height="40.000000" viewBox="0 0 40 40" fill="none" xmlns="http://www.w3.org/2000/svg" xmlns:xlink="http://www.w3.org/1999/xlink">
	<desc>
			Created with Pixso.
	</desc>
	<defs>
		<clipPath id="clip4_33796">
			<rect id="star_bookmark_fill" width="22.500000" height="22.500000" transform="translate(8.750000 8.750000)" fill="white" fill-opacity="0"/>
		</clipPath>
	</defs>
	<circle id="椭圆 54" cx="20.000000" cy="20.000000" r="20.000000" fill="#0A59F7" fill-opacity="0.100275"/>
	<g clip-path="url(#clip4_33796)">
		<path id="减去顶层" d="M19.4105 25.0184C19.573 24.8684 19.7698 24.7934 20.0011 24.7934C20.2324 24.7934 20.423 24.8684 20.573 25.0184L25.1855 29.3872C25.3855 29.5684 25.6199 29.6809 25.8886 29.7247C26.1573 29.7684 26.4199 29.7372 26.6761 29.6309C26.9136 29.5247 27.1074 29.359 27.2573 29.134C27.4073 28.909 27.4824 28.6622 27.4824 28.3934L27.4824 12.1747C27.4824 11.929 27.4413 11.6991 27.3592 11.4849C27.2658 11.2414 27.1194 11.0182 26.9199 10.8153C26.5449 10.4278 26.0948 10.234 25.5698 10.234L14.4136 10.234C14.1741 10.234 13.9503 10.2743 13.742 10.355C13.4937 10.4511 13.2676 10.6045 13.0636 10.8153C12.8641 11.0182 12.7176 11.2414 12.6243 11.4849C12.5422 11.6991 12.5011 11.929 12.5011 12.1747L12.5011 28.3934C12.5011 28.6622 12.5761 28.909 12.7261 29.134C12.8761 29.359 13.0698 29.5247 13.3074 29.6309C13.5198 29.7497 13.7667 29.7872 14.048 29.7434C14.3354 29.6997 14.5761 29.5809 14.7698 29.3872L19.4105 25.0184ZM23.9742 16.851C23.9554 16.9885 23.9023 17.101 23.8148 17.1885L22.2398 18.4916C22.1773 18.5354 22.1398 18.5854 22.1273 18.6416C22.1148 18.6916 22.1148 18.7479 22.1273 18.8104L22.6241 20.8354C22.6554 20.9666 22.6367 21.0854 22.5679 21.1916C22.4991 21.2979 22.4023 21.3666 22.2773 21.3979C22.1461 21.4291 22.0211 21.4135 21.9023 21.351L20.1492 20.226C20.1054 20.1947 20.0523 20.1791 19.9898 20.1791C19.9273 20.1791 19.8679 20.1947 19.8116 20.226L18.0773 21.351C17.9608 21.4039 17.8488 21.4232 17.7413 21.4089C17.7219 21.4063 17.7026 21.4026 17.6835 21.3979C17.5585 21.3666 17.4617 21.2947 17.3929 21.1822C17.3242 21.0697 17.3054 20.9447 17.3367 20.8072L17.8336 18.8104C17.846 18.7479 17.8398 18.6916 17.8148 18.6416C17.796 18.5854 17.7711 18.5354 17.7398 18.4916L16.1648 17.1885C16.0585 17.101 16.0023 16.9916 15.996 16.8604C15.9898 16.7354 16.0242 16.6197 16.0992 16.5135C16.1741 16.4072 16.2867 16.3479 16.4366 16.3354L18.4804 16.176C18.5867 16.176 18.6773 16.1166 18.7523 15.9979L19.5398 14.0854C19.5836 13.9666 19.671 13.8885 19.8023 13.851C19.8648 13.8322 19.9273 13.8229 19.9898 13.8229C20.0523 13.8229 20.1148 13.8322 20.1773 13.851C20.3085 13.8885 20.3961 13.9666 20.4398 14.0854L21.2273 15.9979C21.2398 16.0541 21.2742 16.0979 21.3304 16.1291C21.3804 16.1604 21.4366 16.176 21.4991 16.176L23.5242 16.3354C23.6741 16.3479 23.7898 16.4041 23.871 16.5041C23.9523 16.5979 23.9866 16.7135 23.9742 16.851Z" clip-rule="evenodd" fill="#0A59F7" fill-opacity="1.000000" fill-rule="evenodd"/>
		<path id="path" d="M23.82 17.18C23.91 17.09 23.96 16.98 23.98 16.84C23.99 16.71 23.96 16.59 23.87 16.5C23.79 16.4 23.68 16.34 23.53 16.33L21.5 16.17C21.44 16.17 21.38 16.15 21.33 16.12C21.28 16.09 21.24 16.05 21.23 15.99L20.44 14.08C20.4 13.96 20.31 13.88 20.18 13.84C20.06 13.81 19.93 13.81 19.81 13.84C19.67 13.88 19.59 13.96 19.54 14.08L18.76 15.99C18.68 16.11 18.59 16.17 18.48 16.17L16.44 16.33C16.29 16.34 16.18 16.4 16.1 16.51C16.03 16.61 15.99 16.73 16 16.85C16.01 16.99 16.06 17.09 16.17 17.18L17.74 18.49C17.77 18.53 17.8 18.58 17.82 18.64C17.84 18.69 17.85 18.74 17.84 18.8L17.34 20.8C17.31 20.94 17.33 21.06 17.4 21.18C17.47 21.29 17.56 21.36 17.69 21.39C17.81 21.42 17.94 21.41 18.08 21.34L19.82 20.22C19.87 20.19 19.93 20.17 19.99 20.17C20.06 20.17 20.11 20.19 20.15 20.22L21.91 21.34C22.02 21.41 22.15 21.42 22.28 21.39C22.41 21.36 22.5 21.29 22.57 21.19C22.64 21.08 22.66 20.96 22.63 20.83L22.13 18.8C22.12 18.74 22.12 18.69 22.13 18.64C22.14 18.58 22.18 18.53 22.24 18.49L23.82 17.18Z" fill="#0A59F7" fill-opacity="0.501961" fill-rule="nonzero"/>
	</g>
</svg>
