<svg width="40.000000" height="40.000000" viewBox="0 0 40 40" fill="none" xmlns="http://www.w3.org/2000/svg" xmlns:xlink="http://www.w3.org/1999/xlink">
	<desc>
			Created with Pixso.
	</desc>
	<defs>
		<clipPath id="clip4_33807">
			<rect id="doc_text_badge_clock_fill" width="22.500000" height="22.500000" transform="translate(8.750000 8.750000)" fill="white" fill-opacity="0"/>
		</clipPath>
	</defs>
	<circle id="椭圆 58" cx="20.000000" cy="20.000000" r="20.000000" fill="#0A59F7" fill-opacity="0.100275"/>
	<g clip-path="url(#clip4_33807)">
		<path id="减去顶层" d="M14.375 9.67111C14.0615 9.67111 13.7645 9.71904 13.4838 9.8149C13.3055 9.87577 13.1338 9.95596 12.9688 10.0555C12.7562 10.1836 12.5648 10.3328 12.3945 10.5031C12.2242 10.6735 12.075 10.8649 11.9469 11.0774C11.8271 11.2789 11.7354 11.4887 11.6715 11.7066C11.5988 11.955 11.5625 12.214 11.5625 12.4836L11.5625 27.493C11.5625 27.8064 11.6104 28.1035 11.7063 28.3843L11.7063 28.3843C11.7672 28.5625 11.8474 28.7342 11.9469 28.8992C12.2031 29.3305 12.5438 29.6711 12.9688 29.9211C13.3937 30.1774 13.8625 30.3055 14.375 30.3055L22.1414 30.3055C21.7443 29.9565 21.4084 29.5439 21.1336 29.0679C20.9443 28.7426 20.7954 28.4048 20.6868 28.0545C20.541 27.5837 20.468 27.0902 20.468 26.5741C20.468 26.039 20.5464 25.5292 20.7034 25.0449C20.8103 24.7147 20.9537 24.3963 21.1336 24.0898C21.3614 23.6984 21.6312 23.3498 21.9429 23.0441C22.2385 22.7541 22.5719 22.5027 22.943 22.2898C23.2877 22.0908 23.6456 21.9364 24.0167 21.8267C24.4731 21.6917 24.9496 21.6241 25.4461 21.6241C25.9622 21.6241 26.4556 21.6971 26.9265 21.843C27.2768 21.9515 27.6146 22.1005 27.9399 22.2898C28.1143 22.389 28.2802 22.4966 28.4375 22.6126L28.4375 12.4836C28.4375 11.9774 28.3094 11.5086 28.0531 11.0774C27.925 10.8649 27.7758 10.6735 27.6055 10.5032C27.4352 10.3328 27.2438 10.1836 27.0312 10.0555C26.6063 9.79924 26.1375 9.67111 25.625 9.67111L14.375 9.67111ZM15.4966 15.9491C15.4301 15.9174 15.3687 15.8747 15.3125 15.8211C15.2345 15.7465 15.1777 15.6636 15.142 15.5724C15.1119 15.4956 15.0969 15.4128 15.0969 15.3242C15.0969 15.2356 15.1119 15.1529 15.142 15.076C15.1777 14.9849 15.2345 14.902 15.3125 14.8274C15.3746 14.7652 15.4432 14.7171 15.5181 14.683C15.6089 14.6418 15.7092 14.6211 15.8187 14.6211L24.2094 14.6211C24.3051 14.6211 24.3939 14.6379 24.4758 14.6714C24.5598 14.7058 24.6367 14.7578 24.7062 14.8274C24.7673 14.8914 24.8142 14.9615 24.8469 15.0377C24.8844 15.1252 24.9031 15.2207 24.9031 15.3242C24.9031 15.4278 24.8844 15.5233 24.8469 15.6108C24.8142 15.687 24.7673 15.7571 24.7062 15.8211C24.6422 15.8822 24.5721 15.9291 24.4959 15.9617C24.4084 15.9992 24.3129 16.018 24.2094 16.018L15.8187 16.018C15.7004 16.018 15.5931 15.995 15.4966 15.9491ZM15.5378 19.8809C15.4551 19.845 15.3801 19.7917 15.3125 19.7211C15.1688 19.5774 15.0969 19.4086 15.0969 19.2149C15.0969 19.0211 15.1688 18.8555 15.3125 18.718C15.3687 18.6644 15.4301 18.6217 15.4966 18.59C15.5931 18.5441 15.7004 18.5211 15.8187 18.5211L21.2375 18.5211C21.4313 18.5211 21.5969 18.5867 21.7344 18.718C21.8656 18.8555 21.9313 19.0211 21.9313 19.2149C21.9313 19.4086 21.8625 19.5774 21.725 19.7211C21.5812 19.8649 21.4125 19.9367 21.2188 19.9367L15.8187 19.9367C15.717 19.9367 15.6234 19.9181 15.5378 19.8809Z" clip-rule="evenodd" fill="#0A59F7" fill-opacity="1.000000" fill-rule="evenodd"/>
		<path id="path" d="M21.68 26.57C21.68 27.24 21.85 27.87 22.19 28.44C22.53 29.02 22.98 29.48 23.56 29.82C24.14 30.16 24.77 30.33 25.44 30.33C26.12 30.33 26.74 30.16 27.32 29.82C27.9 29.48 28.36 29.02 28.7 28.44C29.03 27.87 29.2 27.24 29.2 26.57C29.2 25.89 29.03 25.27 28.7 24.7C28.36 24.13 27.9 23.67 27.32 23.33C26.74 22.99 26.12 22.83 25.44 22.83C24.77 22.83 24.14 22.99 23.56 23.33C22.98 23.67 22.53 24.13 22.19 24.7C21.85 25.27 21.68 25.89 21.68 26.57ZM27.18 27.63C27.26 27.73 27.31 27.84 27.31 27.97C27.31 28.1 27.25 28.21 27.15 28.3C27.06 28.39 26.95 28.43 26.82 28.43C26.7 28.43 26.59 28.39 26.5 28.3L25.1 26.9C25.03 26.83 24.99 26.72 24.99 26.57L24.99 24.65C24.99 24.52 25.04 24.4 25.12 24.32C25.22 24.22 25.32 24.18 25.44 24.18C25.57 24.18 25.69 24.22 25.78 24.32C25.87 24.4 25.91 24.52 25.91 24.65L25.91 26.39L27.18 27.63Z" fill="#0A59F7" fill-opacity="0.500000" fill-rule="nonzero"/>
	</g>
</svg>
