<svg width="40.000000" height="40.000000" viewBox="0 0 40 40" fill="none" xmlns="http://www.w3.org/2000/svg" xmlns:xlink="http://www.w3.org/1999/xlink">
	<desc>
			Created with Pixso.
	</desc>
	<defs>
		<clipPath id="clip4_33830">
			<rect id="checkmark_clipboard_fill" width="22.500000" height="22.500000" transform="translate(8.750000 8.750000)" fill="white" fill-opacity="0"/>
		</clipPath>
	</defs>
	<circle id="椭圆 60" cx="20.000000" cy="20.000000" r="20.000000" fill="#0A59F7" fill-opacity="0.100275"/>
	<g clip-path="url(#clip4_33830)">
		<mask id="mask4_33833" mask-type="alpha" maskUnits="userSpaceOnUse" x="8.750000" y="8.750000" width="22.500000" height="22.500000">
			<rect id="rect" x="8.750000" y="8.750000" width="22.500000" height="22.500000" fill="#FFFFFF" fill-opacity="1.000000"/>
			<path id="path" d="M19.08 24.54C18.58 24.54 18.15 24.36 17.79 24L15.29 21.5C15.16 21.37 15.09 21.2 15.09 21.01C15.09 20.81 15.16 20.65 15.29 20.51C15.43 20.38 15.59 20.31 15.79 20.31C15.98 20.31 16.15 20.38 16.28 20.51L18.78 23.01C18.85 23.07 18.95 23.1 19.08 23.1C19.2 23.1 19.28 23.07 19.34 23.01L24.21 18.15C24.34 18.02 24.5 17.95 24.7 17.95C24.9 17.95 25.06 18.02 25.19 18.15C25.33 18.29 25.4 18.45 25.4 18.64C25.4 18.84 25.33 19 25.19 19.14L20.33 24C20 24.36 19.58 24.54 19.08 24.54Z" fill="#000000" fill-opacity="1.000000" fill-rule="nonzero"/>
		</mask>
		<path id="减去顶层" d="M23.0375 13.5435C23.2937 13.5435 23.5156 13.4498 23.7031 13.2623C23.8079 13.1576 23.8833 13.0422 23.9294 12.9161C23.9661 12.8163 23.9844 12.7099 23.9844 12.5967L23.9844 11.0217C23.9844 10.9217 23.9694 10.8267 23.9393 10.7367C23.8944 10.6017 23.8157 10.4779 23.7031 10.3654C23.5156 10.1779 23.2937 10.0842 23.0375 10.0842L16.9625 10.0842C16.8494 10.0842 16.7428 10.1025 16.6431 10.139L16.6431 10.139C16.517 10.1853 16.4016 10.2607 16.2969 10.3654C16.1843 10.4779 16.1056 10.6017 16.0607 10.7367C16.0306 10.8267 16.0156 10.9217 16.0156 11.0217L16.0156 12.5967C16.0156 12.7099 16.0339 12.8163 16.0706 12.9161C16.1167 13.0422 16.1921 13.1576 16.2969 13.2623C16.4016 13.367 16.517 13.4424 16.6431 13.4887C16.7428 13.5253 16.8494 13.5435 16.9625 13.5435L23.0375 13.5435ZM25.1937 12.5967C25.1937 12.9025 25.1393 13.1857 25.0305 13.446C24.9259 13.6964 24.7709 13.9258 24.5657 14.1342C24.3656 14.3342 24.1449 14.4865 23.9036 14.5909C23.6395 14.7052 23.351 14.7623 23.0375 14.7623L16.9625 14.7623C16.755 14.7623 16.5555 14.7345 16.3641 14.6789C16.1981 14.6308 16.0382 14.5617 15.8844 14.4717C15.6873 14.3527 15.5145 14.2115 15.3661 14.0483C15.2651 13.9372 15.1753 13.8158 15.0969 13.6842C15.0182 13.5496 14.9554 13.4099 14.9087 13.265C14.8405 13.0532 14.8063 12.8305 14.8063 12.5967L14.8063 11.1623C14.2615 11.1623 13.7653 11.2664 13.3174 11.4748C13.2565 11.5031 13.1965 11.5333 13.1375 11.5654C12.8589 11.7171 12.614 11.9016 12.4031 12.119C12.2402 12.2868 12.0975 12.4741 11.975 12.681C11.8607 12.8758 11.7701 13.0782 11.7034 13.2881L11.7034 13.2881C11.6095 13.5833 11.5625 13.8935 11.5625 14.2185L11.5625 26.8654C11.5625 27.4217 11.7 27.931 11.975 28.3935C12.2562 28.8623 12.6282 29.2342 13.0906 29.5092C13.3438 29.6577 13.6071 29.7661 13.8802 29.8344C14.1129 29.8926 14.3528 29.9217 14.6 29.9217L25.4 29.9217C25.6472 29.9217 25.8871 29.8926 26.1198 29.8344C26.3929 29.7661 26.6562 29.6577 26.9094 29.5092C27.3718 29.2342 27.7438 28.8623 28.025 28.3935C28.3 27.931 28.4375 27.4217 28.4375 26.8654L28.4375 14.2185C28.4375 13.8935 28.3905 13.5833 28.2966 13.2881C28.2299 13.0782 28.1393 12.8758 28.025 12.681C27.9025 12.4741 27.7598 12.2868 27.5969 12.119C27.386 11.9016 27.1411 11.7171 26.8625 11.5654C26.8035 11.5333 26.7437 11.5031 26.6829 11.4749L26.6826 11.4748C26.2347 11.2664 25.7385 11.1623 25.1937 11.1623L25.1937 12.5967ZM20.3391 24.0055C20.0078 24.368 19.5891 24.5492 19.0828 24.5492C18.8464 24.5492 18.6262 24.5087 18.422 24.4277C18.1942 24.3374 17.9863 24.1966 17.7985 24.0055L15.2953 21.5117C15.1641 21.3742 15.0984 21.2086 15.0984 21.0148C15.0984 20.8211 15.1641 20.6555 15.2953 20.518C15.3594 20.4569 15.4294 20.41 15.5056 20.3773C15.5931 20.3398 15.6886 20.3211 15.7922 20.3211C15.8958 20.3211 15.9912 20.3398 16.0787 20.3773C16.1549 20.41 16.2251 20.4569 16.2891 20.518L18.7828 23.0211C18.8578 23.0773 18.9578 23.1055 19.0828 23.1055C19.2015 23.1055 19.2891 23.0773 19.3453 23.0211L24.2109 18.1555C24.3422 18.0242 24.5078 17.9586 24.7078 17.9586C24.9016 17.9586 25.0641 18.0242 25.1953 18.1555C25.3328 18.293 25.4016 18.4586 25.4016 18.6523C25.4016 18.8461 25.3328 19.0117 25.1953 19.1492L20.3391 24.0055Z" clip-rule="evenodd" fill="#0A59F7" fill-opacity="1.000000" fill-rule="evenodd"/>
		<path id="path" d="M19.08 24.54C19.58 24.54 20 24.36 20.33 24L25.19 19.14C25.33 19 25.4 18.84 25.4 18.64C25.4 18.45 25.33 18.29 25.19 18.15C25.06 18.02 24.9 17.95 24.7 17.95C24.5 17.95 24.34 18.02 24.21 18.15L19.34 23.01C19.28 23.07 19.2 23.1 19.08 23.1C18.95 23.1 18.85 23.07 18.78 23.01L16.28 20.51C16.15 20.38 15.98 20.31 15.79 20.31C15.59 20.31 15.43 20.38 15.29 20.51C15.16 20.65 15.09 20.81 15.09 21.01C15.09 21.2 15.16 21.37 15.29 21.5L17.79 24C18.15 24.36 18.58 24.54 19.08 24.54Z" fill="#0A59F7" fill-opacity="0.501961" fill-rule="nonzero"/>
	</g>
</svg>
