<svg xmlns="http://www.w3.org/2000/svg" width="21.05" height="23.539" viewBox="0 0 21.05 23.539"><defs><style>.a{fill:#c6c6c6;}</style></defs><path class="a" d="M21.855,14.894a19.07,19.07,0,0,0-.807-2.272l-1.129-2.575V9.289C19.919,4.744,17.661.2,12.177.2S4.434,4.744,4.434,9.289v.757l-1.29,2.727c-.323.757-.645,1.515-.968,2.121-1.129,3.181-.645,4.544-.484,4.544.645.151,2.258-2.424,2.258-2.424a6.691,6.691,0,0,0,2.42,4.7,7.235,7.235,0,0,0-1.936.757.618.618,0,0,0-.323.757c.484.606,6.291.454,7.9.3,1.613.151,7.42.454,7.743-.151.161-.151.161-.454-.323-.757a7.235,7.235,0,0,0-1.936-.757,5.911,5.911,0,0,0,2.42-4.7s1.613,2.424,2.258,2.424c.323-.151.645-1.515-.323-4.7" transform="translate(-1.45 -0.2)"/></svg>