<svg xmlns="http://www.w3.org/2000/svg" width="24" height="21.1" viewBox="0 0 24 21.1">
  <path id="联合_1" data-name="联合 1" d="M19.349,19.65a7.153,7.153,0,0,1-2.55.483c-4.05,0-7.2-2.9-7.2-6.6s3.15-6.6,7.2-6.6c3.75,0,7.2,2.9,7.2,6.6a6.69,6.69,0,0,1-3,5.316L21.75,21.1Zm-1.2-8.215a1.007,1.007,0,0,0,.9.967c.751,0,1.2-.323,1.05-.967a1.032,1.032,0,0,0-1.05-.967A1.007,1.007,0,0,0,18.149,11.436Zm-4.649,0a1.006,1.006,0,0,0,.9.967c.749,0,1.049-.323,1.049-.967a1.032,1.032,0,0,0-1.049-.967A1.006,1.006,0,0,0,13.5,11.436ZM3.451,14.013A7.211,7.211,0,0,1,0,7.891C0,3.543,3.9.161,8.4,0c4.2,0,7.8,2.738,8.551,6.442H16.2A7.163,7.163,0,0,0,9,13.69a8.647,8.647,0,0,0,.3,1.934H8.549a19.256,19.256,0,0,1-3-.484l-3,1.612Zm6.9-8.858c0,.644.749,1.126,1.35,1.126a1.064,1.064,0,0,0,1.049-1.126A1.064,1.064,0,0,0,11.7,4.027C11.1,4.027,10.35,4.51,10.35,5.155Zm-5.851,0A1.192,1.192,0,0,0,5.7,6.281,1.3,1.3,0,0,0,6.9,5.155a1.065,1.065,0,0,0-1.05-1.128A1.237,1.237,0,0,0,4.5,5.155Z" fill="#c6c6c6"/>
</svg>
